<svg xmlns="http://www.w3.org/2000/svg" width="15.599" height="15.284" viewBox="0 0 15.599 15.284">
  <path id="Path_2299" data-name="Path 2299" d="M866.8,48.285H851.2a7.9,7.9,0,0,1,.992-2.522A7.95,7.95,0,0,1,859,41.934a4.5,4.5,0,0,1-.9-.091,4.442,4.442,0,0,1-1.6-.672,4.478,4.478,0,0,1-1.618-1.965,4.443,4.443,0,0,1-.26-.838,4.513,4.513,0,0,1,0-1.8,4.445,4.445,0,0,1,.672-1.6,4.482,4.482,0,0,1,1.965-1.618,4.445,4.445,0,0,1,.838-.26,4.511,4.511,0,0,1,1.8,0,4.443,4.443,0,0,1,1.6.672,4.481,4.481,0,0,1,1.618,1.965,4.451,4.451,0,0,1,.26.838,4.507,4.507,0,0,1,0,1.8,4.441,4.441,0,0,1-.672,1.6,4.479,4.479,0,0,1-1.965,1.618,4.443,4.443,0,0,1-.838.26,4.5,4.5,0,0,1-.9.091,7.937,7.937,0,0,1,5.062,1.816,8,8,0,0,1,1.745,2.013A7.9,7.9,0,0,1,866.8,48.285Z" transform="translate(-851.204 -33)" fill="#65666a"/>
</svg>
