<svg xmlns="http://www.w3.org/2000/svg" width="76.368" height="77.842" viewBox="0 0 76.368 77.842">
  <path id="finance-icon" d="M35.333,30.293l-1.622-7.432c5.354,1,13.185,9.612,18.159,16.429-3.542,2.249-5.7,5.487-5.7,9.326a9.8,9.8,0,0,0,.133,1.628,22.809,22.809,0,0,0-7.641-1.286A21.542,21.542,0,0,0,28.813,51.2c-3.878,2.034-6.285,5.278-6.285,9.231a9.162,9.162,0,0,0,.551,3.168c-.07.2-.139.412-.2.634h0a8.946,8.946,0,0,0-.355,2.439,9.124,9.124,0,0,0,.526,3.073l-.139.431a9.067,9.067,0,0,0-.386,2.534,9.193,9.193,0,0,0,1.559,5.151h-.475c-7.527-.386-19.166-.374-22.176-8.1C-3.5,57.272,5.491,42.42,13.689,33.328a44.933,44.933,0,0,1,3.345-3.339c2.984-2.623,6.2-5.7,10.036-7.033l-3.707,6.906,5.386-7.141h2.838ZM47.9,71.2a2.946,2.946,0,0,1,.444,1.527c0,2.813-4.353,5.069-9.719,5.069S28.9,75.513,28.9,72.725a2.978,2.978,0,0,1,.444-1.527c1.267,2.072,4.929,3.573,9.282,3.573s8.047-1.5,9.276-3.573Zm27.948-1.812a3.618,3.618,0,0,1,.545,1.9c0,3.447-5.341,6.247-11.918,6.247S52.6,74.7,52.6,71.255a3.592,3.592,0,0,1,.545-1.9c1.514,2.534,6.032,4.378,11.367,4.378s9.859-1.844,11.4-4.378Zm0-7.552a3.65,3.65,0,0,1,.545,1.9c0,3.447-5.341,6.247-11.918,6.247S52.6,67.168,52.6,63.7a3.624,3.624,0,0,1,.545-1.9c1.514,2.534,6.032,4.378,11.367,4.378s9.859-1.844,11.4-4.378ZM68.78,46.1l-.139,1.552L62.8,47.141a5.354,5.354,0,0,1,1,2.1l-1.407-.127a4.784,4.784,0,0,0-.634-1.381,2.877,2.877,0,0,0-1.21-1.09l.108-1.267,8.129.7Zm-4.3-2.427c5.4,0,9.789,1.723,9.789,3.84s-4.384,3.821-9.789,3.821-9.789-1.7-9.789-3.8,4.384-3.84,9.789-3.84Zm0-1.267c6.577,0,11.918,2.8,11.918,6.247S71.055,54.9,64.478,54.9,52.6,52.089,52.6,48.642s5.335-6.247,11.912-6.247Zm11.4,12.108a3.605,3.605,0,0,1,.507,1.793c0,3.447-5.341,6.247-11.918,6.247S52.6,59.743,52.6,56.3a3.517,3.517,0,0,1,.469-1.8c1.47,2.572,6.019,4.435,11.4,4.435s9.941-1.9,11.4-4.435ZM42.138,58.355l-.114,1.267L37.253,59.2a4.4,4.4,0,0,1,.817,1.717l-1.147-.089A3.8,3.8,0,0,0,36.4,59.7a2.4,2.4,0,0,0-.988-.887l.076-1.039,6.634.577ZM38.659,56.4c4.435,0,7.99,1.407,7.99,3.168s-3.58,3.168-7.99,3.168-7.99-1.407-7.99-3.168S34.224,56.4,38.659,56.4Zm0-1.039c5.367,0,9.719,2.287,9.719,5.1s-4.353,5.069-9.719,5.069-9.726-2.281-9.726-5.069,4.327-5.126,9.726-5.126Zm9.307,9.884a2.908,2.908,0,0,1,.412,1.464c0,2.807-4.353,5.069-9.719,5.069s-9.726-2.287-9.726-5.069a2.889,2.889,0,0,1,.412-1.464c1.2,2.1,4.91,3.63,9.314,3.63S46.769,67.339,47.967,65.242ZM26.836,12.87c-1.153-3.4-2.192-6.843-3.067-10.328,3.269-3.586,15.9-3.111,19.534-.057l-3.377,7.99c1.812-2.382,2.42-3.358,3.5-4.682a10.879,10.879,0,0,1,1.267.995,5.244,5.244,0,0,1,1.983,3.168,3.269,3.269,0,0,1-.906,2.642l-7.685,8.984a16.86,16.86,0,0,1-2.908-.735c.437-1.033.969-2.167,1.407-3.168l-2.813,3.035a10.48,10.48,0,0,0-7.476.912L18.467,12.2a2.6,2.6,0,0,1-.678-1.685c0-2.268,3.39-4.226,5.164-4.967Z" transform="translate(-0.028 -0.021)" fill="#fff" fill-rule="evenodd"/>
</svg>
