<svg xmlns="http://www.w3.org/2000/svg" width="12.273" height="15" viewBox="0 0 12.273 15">
  <path id="Path_2300" data-name="Path 2300" d="M-6.877-5.753h5.455V-7.8a2.628,2.628,0,0,0-.8-1.928,2.628,2.628,0,0,0-1.928-.8,2.628,2.628,0,0,0-1.928.8,2.628,2.628,0,0,0-.8,1.928ZM1.987-4.731V1.406a.986.986,0,0,1-.3.724.986.986,0,0,1-.724.3H-9.263a.986.986,0,0,1-.724-.3.986.986,0,0,1-.3-.724V-4.731a.986.986,0,0,1,.3-.724.986.986,0,0,1,.724-.3h.341V-7.8a4.593,4.593,0,0,1,1.406-3.366,4.593,4.593,0,0,1,3.366-1.406A4.593,4.593,0,0,1-.783-11.165,4.593,4.593,0,0,1,.623-7.8v2.045H.964a.986.986,0,0,1,.724.3A.986.986,0,0,1,1.987-4.731Z" transform="translate(10.286 12.571)" fill="#65666a"/>
</svg>
