<svg xmlns="http://www.w3.org/2000/svg" width="32.678" height="32.02" viewBox="0 0 32.678 32.02">
  <path id="Path_748" data-name="Path 748" d="M883.882,65.02H851.2a16.541,16.541,0,0,1,2.079-5.283,16.654,16.654,0,0,1,14.26-8.022,9.427,9.427,0,0,1-1.886-.19,9.306,9.306,0,0,1-3.346-1.408A9.383,9.383,0,0,1,858.921,46a9.316,9.316,0,0,1-.545-1.757,9.451,9.451,0,0,1,0-3.772,9.309,9.309,0,0,1,1.408-3.346,9.386,9.386,0,0,1,4.117-3.39,9.309,9.309,0,0,1,1.756-.545,9.449,9.449,0,0,1,3.772,0,9.308,9.308,0,0,1,3.346,1.408,9.386,9.386,0,0,1,3.39,4.117,9.315,9.315,0,0,1,.545,1.757,9.439,9.439,0,0,1,0,3.772A9.3,9.3,0,0,1,875.3,47.59a9.384,9.384,0,0,1-4.117,3.39,9.309,9.309,0,0,1-1.756.545,9.426,9.426,0,0,1-1.886.19,16.628,16.628,0,0,1,10.605,3.8,16.759,16.759,0,0,1,3.655,4.217A16.543,16.543,0,0,1,883.882,65.02Z" transform="translate(-851.204 -33)" fill="#060606"/>
</svg>
