<svg id="quality-badge-thumbs-up-icon" xmlns="http://www.w3.org/2000/svg" width="83" height="83" viewBox="0 0 83 83">
  <path id="Path_790" data-name="Path 790" d="M41.5,0l9.132,7.423L62.25,5.559l4.195,11,11,4.195L75.577,32.368,83,41.5l-7.423,9.132L77.441,62.25l-11,4.195-4.195,11L50.632,75.577,41.5,83l-9.132-7.423L20.75,77.441l-4.195-11-11-4.195L7.423,50.632,0,41.5l7.423-9.132L5.559,20.75l11-4.195,4.195-11L32.368,7.423,41.5,0ZM27.572,38.069h6.64a.979.979,0,0,1,.973.979V52.03a.983.983,0,0,1-.973.979h-6.64a.984.984,0,0,1-.979-.979V39.048a.989.989,0,0,1,.979-.979Zm14.32-9.733c.513-2.607,4.782-.2,5.066,4a17.834,17.834,0,0,1-.365,4.451h6.1c2.54.1,4.748,1.918,3.188,4.9.358,1.3.412,2.823-.561,3.425a5.029,5.029,0,0,1-1.506,4.33,5.138,5.138,0,0,1-.784,2.641c-.817,1.155-1.486.878-2.776.878h-10.3a3.965,3.965,0,0,1-3.587-1.79V39.7c3.073-.831,4.7-5.032,5.525-7.788V28.335ZM41.5,16.224A25.276,25.276,0,1,1,16.224,41.5,25.277,25.277,0,0,1,41.5,16.224Z" fill="#fff" fill-rule="evenodd"/>
</svg>
