<svg xmlns="http://www.w3.org/2000/svg" width="79.097" height="77.842" viewBox="0 0 79.097 77.842">
  <g id="services-painting-icon" transform="translate(0 0)">
    <path id="Path_788" data-name="Path 788" d="M75.524,65.166a14.662,14.662,0,1,0-4.2,6.251,14.841,14.841,0,0,0,4.2-6.251Zm-20-49.807-.019.058A90.735,90.735,0,0,0,38.985,14.31a103.443,103.443,0,0,0-18.778,1.777l-.006-.026c-4.873-22.917,41.753-19.641,35.322-.7Zm-27.1,24.823a21.03,21.03,0,0,1-8.671,3.251l4.126,11.69H45.049A17.435,17.435,0,0,0,73.992,72.737a17.181,17.181,0,0,0,5.1-12.328A17.448,17.448,0,0,0,57.339,43.517c-2.556-.257-5.208-.463-7.094-1.442a8.384,8.384,0,0,1-2.311-2.227l-.122-1.931a11.6,11.6,0,0,0,1.86-1.905,13.733,13.733,0,0,0,2.311-5.176c.122-.431.238-.856.38-1.287,1.172-.122,2.2-1.429,2.813-3.051a11.085,11.085,0,0,0,.669-2.839,4.286,4.286,0,0,0-.335-2.433,1.519,1.519,0,0,0-1.217-.837,10.119,10.119,0,0,1,.464-2.562,90.361,90.361,0,0,0-15.772-1A100.12,100.12,0,0,0,20.7,18.553l.528,2.53a4.757,4.757,0,0,0-.38,2.839,9.715,9.715,0,0,0,.933,3.2c.618,1.217,1.5,2.073,2.53,2.073.1.283.212.6.309.908.837,2.459,1.455,4.32,2.955,6.083a10.966,10.966,0,0,0,1.41,1.429l-.122,2.169c-.135.129-.29.264-.444.4Zm17.89-1.513c-2.691,1.8-4.332,2.781-7.815,2.7-3.386-.052-5.156-1.2-7.867-2.91-.206,11.311,15.959,11.987,15.682.212Zm4.036-8.2c.142-.5.309-1.024.5-1.648a.547.547,0,0,1,.6-.406c.785.142,1.577-1,2.124-2.388a10.211,10.211,0,0,0,.618-2.549,3.523,3.523,0,0,0-.212-1.835c-.212-.393-.8-.167-1.242-.547-2.26,5.993-21.958,8.7-30.018.451a3.723,3.723,0,0,0-.238,2.169,8.933,8.933,0,0,0,.837,2.839c.5.978,1.146,1.648,1.79,1.481a.539.539,0,0,1,.644.335c.193.521.309.933.451,1.333,4.171,12.27,20.046,13.229,24.147.766ZM18.115,58.825a1.693,1.693,0,1,1-1.693,1.693,1.7,1.7,0,0,1,1.693-1.693Zm-3.148-14.51c-5.324,1.21-10,3.837-12.63,15.392L0,68.649H12.663V57.583a2.47,2.47,0,0,1,2.466-2.466h2.633c-.109-4.281-2.247-8.774-2.794-10.8Z" fill="#fff" fill-rule="evenodd"/>
    <g id="Group_538" data-name="Group 538" transform="translate(58.377 69.024) rotate(-131)">
      <path id="Path_789" data-name="Path 789" d="M0,16.738V1.287a1.3,1.3,0,0,1,.012-.18A1.288,1.288,0,0,1,1.287,0H9.013a1.287,1.287,0,1,1,0,2.575H2.575V16.738a1.288,1.288,0,0,1-2.575,0Z" transform="translate(0)" fill="#fff"/>
    </g>
  </g>
</svg>
