<svg xmlns="http://www.w3.org/2000/svg" width="19.395" height="23.813" viewBox="0 0 19.395 23.813">
  <g id="icon-Job-Provider" transform="translate(-45)">
    <g id="XMLID_31_" transform="translate(45)">
      <g id="Group_1036" data-name="Group 1036" transform="translate(0.368 0.368)">
        <path id="Path_2088" data-name="Path 2088" d="M114.464,364.8v3.57H112.5v-2.73a11.1,11.1,0,0,1,1.719-.707S114.312,364.883,114.464,364.8Z" transform="translate(-109.554 -347.257)" fill="#31c0d8"/>
        <path id="Path_2089" data-name="Path 2089" d="M334.464,365.63v2.74H332.5V364.8c.152.083.246.133.246.133A11.13,11.13,0,0,1,334.464,365.63Z" transform="translate(-318.752 -347.257)" fill="#31c0d8"/>
        <path id="Path_2090" data-name="Path 2090" d="M54.709,386.1a.492.492,0,0,0,.491.491H52.5v-1.227s.034-1.969,2.946-3.466v2.73H55.2a.492.492,0,0,0-.491.491Z" transform="translate(-52.5 -363.517)" fill="#afb6bb"/>
        <path id="Path_2091" data-name="Path 2091" d="M375.446,385.176V386.4h-2.7a.492.492,0,0,0,.491-.491v-.982a.492.492,0,0,0-.491-.491H372.5V381.7C375.436,383.193,375.446,385.176,375.446,385.176Z" transform="translate(-356.788 -363.327)" fill="#afb6bb"/>
        <path id="Path_2092" data-name="Path 2092" d="M161.338,338.84v3.57H152.5v-3.57a9.472,9.472,0,0,0,1.964-1.34,3.069,3.069,0,0,0,4.91,0A9.473,9.473,0,0,0,161.338,338.84Z" transform="translate(-147.59 -321.297)" fill="#afb6bb"/>
        <path id="Path_2093" data-name="Path 2093" d="M111.739,437.991v.982a.492.492,0,0,1-.491.491H97.991a.492.492,0,0,1-.491-.491v-.982a.492.492,0,0,1,.491-.491h13.257A.492.492,0,0,1,111.739,437.991Z" transform="translate(-95.29 -416.387)" fill="#31c0d8"/>
        <path id="Path_2094" data-name="Path 2094" d="M206.428,8.065v4.1H202.5V7.5h3.928Z" transform="translate(-195.135 -7.5)" fill="#ffd147"/>
        <path id="Path_2095" data-name="Path 2095" d="M286.428,23.1H282.5V19A6.153,6.153,0,0,1,286.428,23.1Z" transform="translate(-271.207 -18.435)" fill="#fbb246"/>
        <path id="Path_2096" data-name="Path 2096" d="M126.428,19v4.1H122.5v0A6.146,6.146,0,0,1,126.428,19Z" transform="translate(-119.063 -18.435)" fill="#fbb246"/>
        <path id="Path_2097" data-name="Path 2097" d="M111.739,104.464H97.5c0-.54.442-1.964.982-1.964h12.275C111.3,102.5,111.739,103.924,111.739,104.464Z" transform="translate(-95.29 -97.836)" fill="#ffd248"/>
        <path id="Path_2098" data-name="Path 2098" d="M351.264,167.5c.815,0,1.473.3,1.473.982a1.817,1.817,0,0,1-1.537,1.458,6.959,6.959,0,0,0,.064-.967Z" transform="translate(-336.534 -159.644)" fill="#eadeca"/>
        <path id="Path_2099" data-name="Path 2099" d="M103.973,168.973a6.958,6.958,0,0,0,.064.967,1.817,1.817,0,0,1-1.537-1.458c0-.678.658-.982,1.473-.982Z" transform="translate(-100.045 -159.644)" fill="#eadeca"/>
        <path id="Path_2100" data-name="Path 2100" d="M192.5,305.7a5.491,5.491,0,0,0,4.91,0v1.561a3.069,3.069,0,0,1-4.91,0Z" transform="translate(-185.626 -291.058)" fill="#eadeca"/>
        <path id="Path_2101" data-name="Path 2101" d="M135.446,150.513a5.637,5.637,0,0,1-2.882-4.345,6.959,6.959,0,0,1-.064-.967v-2.7h10.8v2.7a6.959,6.959,0,0,1-.064.967,5.637,5.637,0,0,1-2.882,4.345,5.491,5.491,0,0,1-4.91,0Z" transform="translate(-128.572 -135.872)" fill="#eadeca"/>
      </g>
      <g id="Group_1037" data-name="Group 1037" transform="translate(0)">
        <path id="Path_2102" data-name="Path 2102" d="M61.249,18.414a11.506,11.506,0,0,0-1.744-.711l-.211-.114A9.951,9.951,0,0,1,57.52,16.42V15.228a5.964,5.964,0,0,0,2.838-4.257,2.132,2.132,0,0,0,1.581-1.765c0-.739-.555-1.229-1.473-1.33V7.365h1.718V7c0-.474-.412-2.3-1.326-2.331A6.507,6.507,0,0,0,57.029.675V0H52.365V.675a6.5,6.5,0,0,0-3.831,3.991C47.621,4.7,47.21,6.523,47.21,7v.368h1.718v.511c-.918.1-1.473.592-1.473,1.33a2.132,2.132,0,0,0,1.581,1.765,5.964,5.964,0,0,0,2.838,4.257V16.42A9.944,9.944,0,0,1,50.1,17.589l-.213.115a11.47,11.47,0,0,0-1.742.72C45.074,20,45,22.122,45,22.211v1.6H64.394v-1.6C64.394,22.126,64.348,19.99,61.249,18.414Zm-.537.555v2.143H59.484V18.472A10.848,10.848,0,0,1,60.712,18.97Zm-10.065-.842a11.626,11.626,0,0,0,1.583-1.039,3.362,3.362,0,0,0,4.935,0,11.623,11.623,0,0,0,1.583,1.039v2.985h-8.1Zm4.051-2.17a5.741,5.741,0,0,0,2.087-.378v.85a2.675,2.675,0,0,1-4.174,0v-.849A5.74,5.74,0,0,0,54.7,15.957ZM61.2,9.206a1.321,1.321,0,0,1-.75.936c.008-.146.013-1.526.013-1.526C61.123,8.708,61.2,9.048,61.2,9.206ZM60.076,4.664H57.029V1.471A5.771,5.771,0,0,1,60.076,4.664ZM53.1.736h3.191V4.664H53.1Zm-.736.734V4.664H49.317A5.767,5.767,0,0,1,52.365,1.471Zm-3.8,3.93H60.826A2.4,2.4,0,0,1,61.4,6.628H47.991A2.4,2.4,0,0,1,48.568,5.4Zm-.377,3.805c0-.159.08-.5.736-.59,0,0,0,1.381.013,1.526A1.321,1.321,0,0,1,48.192,9.206Zm1.533,1.407a6.617,6.617,0,0,1-.06-.916V7.365H59.73V9.7a6.617,6.617,0,0,1-.06.917,5.252,5.252,0,0,1-2.687,4.069,5.123,5.123,0,0,1-4.571,0A5.252,5.252,0,0,1,49.725,10.613Zm.185,7.861v2.639H48.683V18.978A10.86,10.86,0,0,1,49.91,18.474Zm-4.174,3.75c0-.1.107-1.557,2.21-2.844v1.743a.86.86,0,0,0-.737.849v.982a.858.858,0,0,0,.01.123H45.737Zm2.332.853a.124.124,0,0,1-.123-.123v-.982a.124.124,0,0,1,.123-.123H61.326a.124.124,0,0,1,.123.123v.982a.124.124,0,0,1-.123.123Zm15.589,0H62.175a.857.857,0,0,0,.01-.123v-.982a.86.86,0,0,0-.736-.849V19.367c2.133,1.292,2.207,2.769,2.209,2.854Z" transform="translate(-45)" fill="#231f20"/>
        <path id="Path_2103" data-name="Path 2103" d="M235.368,209.832h.982V209.1h-.614v-1.6H235v1.964A.368.368,0,0,0,235.368,209.832Z" transform="translate(-225.671 -197.312)" fill="#231f20"/>
      </g>
    </g>
  </g>
</svg>
