<svg xmlns="http://www.w3.org/2000/svg" width="22.31" height="23.814" viewBox="0 0 22.31 23.814">
  <g id="icon-Customer" transform="translate(-16.174)">
    <path id="Path_2104" data-name="Path 2104" d="M190.615,306.287v-2.608h-6.706v2.608l3.353,2.98Z" transform="translate(-159.933 -289.554)" fill="#e6af78"/>
    <path id="Path_2105" data-name="Path 2105" d="M183.909,303.677v2.752c4.224,1.522,6.706-2.287,6.706-2.287v-.465Z" transform="translate(-159.933 -289.552)" fill="#d29b6e"/>
    <path id="Path_2106" data-name="Path 2106" d="M45.29,349.266a3.531,3.531,0,0,0-2.473-3.4l-3.124-.647-.887-1.34a.373.373,0,0,0-.534-.064l-3.791,3.276h0l-3.8-3.262a.373.373,0,0,0-.534.066l-.882,1.343-3.121.659a3.531,3.531,0,0,0-2.46,3.41l0,.924a1.055,1.055,0,0,0,1.12.977l8.569-.016,2.235,0,8.569-.016a1.055,1.055,0,0,0,1.116-.981Z" transform="translate(-7.158 -327.743)" fill="#eff2fa"/>
    <g id="Group_1038" data-name="Group 1038" transform="translate(16.523 18.967)">
      <path id="Path_2107" data-name="Path 2107" d="M26.4,417.838l-1.99-1.483a3.73,3.73,0,0,0-.73,2.2l0,.924a1.055,1.055,0,0,0,1.12.977l2.308,0V419.4A2.087,2.087,0,0,0,26.4,417.838Z" transform="translate(-23.68 -415.957)" fill="#e4eaf6"/>
      <path id="Path_2108" data-name="Path 2108" d="M413.974,411.277l0-.924a3.711,3.711,0,0,0-1.048-2.556l-1.867,1.881a2.088,2.088,0,0,0-.71,1.565v1.02l2.511,0A1.055,1.055,0,0,0,413.974,411.277Z" transform="translate(-392.362 -407.797)" fill="#e4eaf6"/>
    </g>
    <path id="Path_2109" data-name="Path 2109" d="M127.929,16.21a12.174,12.174,0,0,1,1.007-3.77l.037-.08c.581-.076,1.137-.122,1.667-.144q.227-.009.448-.013a13.911,13.911,0,0,1,6.457,1.258l.757,1.793a12.043,12.043,0,0,0,.351-7.011c-2.607.377-6.461-1.835-8.89.017h-.206c-1.543,0-2.451,1.345-2.448,2.985a29.6,29.6,0,0,0,.742,4.727l.078.517c0-.053,0-.132,0-.186C127.929,16.3,127.929,16.213,127.929,16.21Z" transform="translate(-105.775 -7.162)" fill="#785550"/>
    <path id="Path_2110" data-name="Path 2110" d="M154.723,113.515q.006-.044.011-.088a4.892,4.892,0,0,0-.154-2.469c-.206-.446-.383-.908-.575-1.361a13.912,13.912,0,0,0-6.457-1.258q-.221,0-.448.013c-.53.022-1.086.068-1.667.144l-.037.08c-1.4,3.032-1.617,6.8.942,9.3a4.979,4.979,0,0,0,2.093,1.255q.148.042.3.073l.059.012a4.038,4.038,0,0,0,.768.073C152.576,119.287,154.38,116.189,154.723,113.515Z" transform="translate(-122.235 -103.297)" fill="#f0c087"/>
    <path id="Path_2111" data-name="Path 2111" d="M146.159,113.469c-.087-4.168.605-3.958.605-3.958,1.709-.394,4.539-.116,7.4.473q-.079-.193-.16-.386a13.912,13.912,0,0,0-6.457-1.258q-.221,0-.448.013c-.53.022-1.086.068-1.667.144l-.037.08c-1.4,3.032-1.617,6.8.942,9.3a4.979,4.979,0,0,0,2.093,1.255q.148.042.3.073l.059.012a4.031,4.031,0,0,0,.766.073A7.168,7.168,0,0,1,146.159,113.469Z" transform="translate(-122.235 -103.298)" fill="#e6af78"/>
    <path id="Path_2112" data-name="Path 2112" d="M169.464,8.241c-2.607.377-6.461-1.835-8.89.017,0,0-1.933,2.252-.789,4.1.581-.076,1.137-.122,1.667-.144h.009q.222-.009.438-.013a13.911,13.911,0,0,1,6.457,1.258l.757,1.793A12.044,12.044,0,0,0,169.464,8.241Z" transform="translate(-136.586 -7.16)" fill="#694b4b"/>
    <path id="Path_2113" data-name="Path 2113" d="M147.776,348.522l1.116-1.12-3.8-3.262a.373.373,0,0,0-.534.066l-.882,1.343,2.988,4.093Z" transform="translate(-121.568 -328.054)" fill="#e4eaf6"/>
    <path id="SVGCleanerId_0" d="M258.132,349.321l2.973-4.1-.887-1.34a.373.373,0,0,0-.534-.064l-3.791,3.276,1.12,1.116Z" transform="translate(-228.568 -327.742)" fill="#e4eaf6"/>
    <g id="Group_1039" data-name="Group 1039" transform="translate(27.324 15.987)">
      <path id="SVGCleanerId_0_1_" d="M258.132,349.321l2.973-4.1-.887-1.34a.373.373,0,0,0-.534-.064l-3.791,3.276,1.12,1.116Z" transform="translate(-255.892 -343.729)" fill="#e4eaf6"/>
    </g>
    <path id="Path_2114" data-name="Path 2114" d="M233.834,460.923l-1.4-.047-.411,2.013,2.235,0-.427-1.962" transform="translate(-205.812 -439.44)" fill="#5b5d6e"/>
    <path id="Path_2115" data-name="Path 2115" d="M231.907,417.479a.747.747,0,0,0,.747.744h.745a.747.747,0,0,0,.744-.747V417.1l-1.12-1.116-1.116,1.12Z" transform="translate(-205.698 -396.639)" fill="#515262"/>
    <path id="Path_2116" data-name="Path 2116" d="M38.482,342.1a4.075,4.075,0,0,0-.713-2.273,3.6,3.6,0,0,0-2.016-1.464l-.023-.005-2.983-.618-.364-.55-.444-.67-.012-.017a.722.722,0,0,0-1.035-.124l-.007.006-1.264,1.092-2.3,1.988-1.99-1.706-1.586-1.36-.007-.006a.724.724,0,0,0-.394-.16l-.062,0a.718.718,0,0,0-.084,0,.708.708,0,0,0-.1.02.727.727,0,0,0-.277.143l-.022.021c-.014.013-.029.026-.042.04a.711.711,0,0,0-.052.061l-.006.008-.007.009-.8,1.223-2.98.629-.023.006a3.6,3.6,0,0,0-2.01,1.472,4.076,4.076,0,0,0-.7,2.275l0,.924a1.4,1.4,0,0,0,1.466,1.325h0l8.568-.016h0l2.232,0h0l8.569-.016a1.544,1.544,0,0,0,1.02-.375,1.26,1.26,0,0,0,.445-.956Zm-11.528.411H27.7c.029,0,.057,0,.085,0l.236,1.168-1.383,0,.231-1.168C26.9,342.514,26.926,342.515,26.954,342.515Zm1.141-1.1a.4.4,0,0,1-.4.4h-.745a.4.4,0,0,1-.279-.116.393.393,0,0,1-.117-.279v-.228l.767-.77.77.767Zm1.425.206-.83-.827h0l-.012-.012-.842-.839,2.4-2.077,1.1-.948a.026.026,0,0,1,.028,0h0l.372.562.372.562-1.3,1.788Zm-6.229-4.69.006,0,3.513,3.012-1.677,1.683-2.6-3.567.74-1.127A.025.025,0,0,1,23.292,336.935ZM17.644,343.7h0a.71.71,0,0,1-.768-.628l0-.924a3.2,3.2,0,0,1,2.194-3.07l2.888-.61,2.855,3.91a.349.349,0,0,0,.255.142h.027a.349.349,0,0,0,.222-.079l.026-.023.595-.6a1.094,1.094,0,0,0,.247.376l.033.031-.288,1.455Zm19.934-.238a.846.846,0,0,1-.56.2l-8.283.016-.294-1.453a1.1,1.1,0,0,0,.278-.409l.6.595a.349.349,0,0,0,.247.1h.028a.349.349,0,0,0,.255-.143l2.84-3.921,2.891.6a3.2,3.2,0,0,1,2.206,3.062l0,.924A.571.571,0,0,1,37.577,343.46Z" transform="translate(0 -320.582)"/>
    <path id="Path_2117" data-name="Path 2117" d="M120.344,9.236h0v.039q0,.2,0,.39v.007c0,.166.007.337.02.509h0c.006.076.013.154.021.232h0c.015.142.035.286.058.428h0q.013.08.028.16h0v.01l0,.008v.005h0A7.525,7.525,0,0,0,121.2,13.1l.026.049.05.093q.044.081.091.16l0,.006c.035.06.071.119.108.178l.013.02c.041.065.082.129.125.193a6.11,6.11,0,0,0,2.161,1.994l.006,0q.176.093.356.171l.012.005c.056.024.112.047.169.068l.029.011q.083.031.166.059l.027.009c.058.019.116.037.175.054h0c.054.015.108.03.162.043l.01,0c.051.012.1.024.152.034h0l.041.008.022,0h.005l.012,0,.11.018.084.014.129.015.075.009c.05,0,.1.008.149.011l.056,0q.1,0,.2,0h.159l.1,0h.01a5.043,5.043,0,0,0,3.285-1.607l.012-.013.077-.081.039-.042.034-.037.02-.023.018-.019.024-.028.052-.06.031-.036.073-.088,0,0a7.406,7.406,0,0,0,1.576-3.752c.009-.072.017-.144.023-.214h0q0-.041.007-.083h0q.007-.082.011-.164T131.5,9.9c.018-.317.017-.628.013-.864,0-.036,0-.115,0-.2a5.746,5.746,0,0,0-.009-.721A12.313,12.313,0,0,0,131.814.94a.349.349,0,0,0-.369-.2,4.288,4.288,0,0,1-.61.041,14.359,14.359,0,0,1-2.662-.369A16.024,16.024,0,0,0,125.13,0a4.4,4.4,0,0,0-2.64.749H122.4c-1.65,0-2.8,1.375-2.8,3.335a28.859,28.859,0,0,0,.742,4.767Zm3.592-3.845.309,0h.1l.217,0h.04a16.418,16.418,0,0,1,1.938.156,13.452,13.452,0,0,1,3.168.825c.184.075.322.138.406.179l.036.086.644,1.524V9.656c0,.135-.006.274-.015.413,0,.039-.006.077-.01.115a6.872,6.872,0,0,1-1.613,3.865,4.494,4.494,0,0,1-3,1.588h-.009l-.083,0h-.038l-.091,0h-.007q-.086,0-.172,0l-.052,0-.12-.009-.064-.007-.109-.013-.07-.011-.109-.018-.053-.011c-.091-.019-.183-.041-.273-.067q-.1-.027-.19-.059l-.027-.01c-.053-.018-.1-.038-.157-.058l-.042-.017c-.048-.02-.1-.04-.144-.062l-.037-.017q-.077-.036-.152-.074l-.023-.012a5.394,5.394,0,0,1-1.942-1.785,6.941,6.941,0,0,1-1.152-3.751V9.279q0-.174.014-.349c0-.069.01-.138.017-.206,0-.021,0-.043.008-.064l.007-.056q.006-.041.012-.082l.008-.054q.007-.043.014-.085l.009-.051q.008-.045.017-.09l.009-.047q.01-.048.02-.1l.009-.041q.012-.053.024-.106l.007-.032c.01-.041.02-.082.03-.124l0-.013c.059-.234.126-.465.2-.685l0-.012.038-.118.006-.018.037-.11.007-.021.036-.1.008-.023.035-.1.008-.022.035-.1.008-.021.035-.093.007-.019.035-.092.006-.016.036-.091,0-.012.036-.091,0-.008.038-.093h0c.05-.122.1-.229.134-.316h0l.026-.059,0-.01.015-.035.2-.022.158-.017.216-.02.15-.014L123,5.431l.13-.009q.181-.011.362-.019C123.642,5.4,123.79,5.393,123.935,5.391ZM122.4,1.448h.206a.349.349,0,0,0,.211-.072A3.679,3.679,0,0,1,125.13.7a15.508,15.508,0,0,1,2.907.394,14.829,14.829,0,0,0,2.8.382c.146,0,.287-.005.422-.016a12.038,12.038,0,0,1-.179,5.579l-.37-.875,0,0a.343.343,0,0,0-.022-.042l0-.006-.005-.007-.01-.015h0l-.017-.02,0,0h0a.351.351,0,0,0-.038-.036l-.008-.006a.354.354,0,0,0-.04-.027l0,0-.072-.038a14.114,14.114,0,0,0-5.92-1.263h-.018l-.3,0H124.2l-.239,0h-.033c-.151,0-.3.007-.456.013-.56.023-1.131.072-1.7.146a.35.35,0,0,0-.27.195l0,.006-.037.08-.017.038a14.818,14.818,0,0,0-.75,1.946,19.1,19.1,0,0,1-.393-3.033C120.3,2.774,120.945,1.451,122.4,1.448Z" transform="translate(-98.616)"/>
  </g>
</svg>
